# xmcd
#
# Track frame offsets:
#   150
#   16330
#   34870
#   66552
#   83990
#   103400
#   123605
#   145560
#   163342
#   180057
#
# Disc length: 2710 seconds
#
# Revision: 0
# Processed by: cddbd v1.5.2PL0 Copyright (c) Steve Scherf et al.
# Submitted via: GXTranscoder 2.0.1939
#
DISCID=880a940a
DTITLE=Steve Fister - Dodgin Blues
DYEAR=2005
DGENRE=Blues
TTITLE0=She´s Aint Lonesome
TTITLE1=When Love comes to Town
TTITLE2=Master Plan
TTITLE3=Won´t Fall Down
TTITLE4=Better Days
TTITLE5=Tell me something Good
TTITLE6=Zig Zag Talk
TTITLE7=I call your Name
TTITLE8=I a past life
TTITLE9=Dodgin Blues
EXTD=
EXTT0=
EXTT1=
EXTT2=
EXTT3=
EXTT4=
EXTT5=
EXTT6=
EXTT7=
EXTT8=
EXTT9=
PLAYORDER=
